<?xml version="1.0" encoding="UTF-8" standalone="no"?>
<svg
   xmlns:dc="http://purl.org/dc/elements/1.1/"
   xmlns:cc="http://creativecommons.org/ns#"
   xmlns:rdf="http://www.w3.org/1999/02/22-rdf-syntax-ns#"
   xmlns:svg="http://www.w3.org/2000/svg"
   xmlns="http://www.w3.org/2000/svg"
   xmlns:sodipodi="http://sodipodi.sourceforge.net/DTD/sodipodi-0.dtd"
   xmlns:inkscape="http://www.inkscape.org/namespaces/inkscape"
   version="1.1"
   id="svg10"
   xml:space="preserve"
   width="1169.438"
   height="216"
   viewBox="0 0 1169.438 216"
   sodipodi:docname="typo_Pink.svg"
   inkscape:version="1.0.2 (e86c870879, 2021-01-15, custom)"><metadata
     id="metadata16"><rdf:RDF><cc:Work
         rdf:about=""><dc:format>image/svg+xml</dc:format><dc:type
           rdf:resource="http://purl.org/dc/dcmitype/StillImage" /><dc:title></dc:title></cc:Work></rdf:RDF></metadata><defs
     id="defs14"><clipPath
       clipPathUnits="userSpaceOnUse"
       id="clipPath28"><path
         d="M 0,500 H 963 V 0 H 0 Z"
         id="path26" /></clipPath><clipPath
       clipPathUnits="userSpaceOnUse"
       id="clipPath44"><path
         d="M 0,500 H 963 V 0 H 0 Z"
         id="path42" /></clipPath></defs><sodipodi:namedview
     pagecolor="#ffffff"
     bordercolor="#666666"
     borderopacity="1"
     objecttolerance="10"
     gridtolerance="10"
     guidetolerance="10"
     inkscape:pageopacity="0"
     inkscape:pageshadow="2"
     inkscape:window-width="1920"
     inkscape:window-height="1017"
     id="namedview12"
     showgrid="false"
     fit-margin-top="0"
     fit-margin-left="0"
     fit-margin-right="0"
     fit-margin-bottom="0"
     inkscape:zoom="0.51129284"
     inkscape:cx="169.93381"
     inkscape:cy="45.225156"
     inkscape:window-x="1912"
     inkscape:window-y="-8"
     inkscape:window-maximized="1"
     inkscape:current-layer="g38" /><g
     id="g18"
     inkscape:groupmode="layer"
     inkscape:label="logo"
     transform="matrix(1.3333333,0,0,-1.3333333,-12,594.66665)"><path
       d="M 72,284 H 9 v 162 h 63 z"
       style="fill:#ffffff;fill-opacity:1;fill-rule:nonzero;stroke:none"
       id="path20" /><g
       id="g22"
       style="fill:#ffffff;fill-opacity:1"><g
         id="g24"
         clip-path="url(#clipPath28)"
         style="fill:#ffffff;fill-opacity:1"><g
           id="g30"
           transform="translate(153,410)"
           style="fill:#ffffff;fill-opacity:1"><path
             d="m 0,0 c 0,-19.882 -16.118,-36 -36,-36 -19.882,0 -36,16.118 -36,36 0,19.882 16.118,36 36,36 C -16.118,36 0,19.882 0,0"
             style="fill:#ffffff;fill-opacity:1;fill-rule:nonzero;stroke:none"
             id="path32" /></g><g
           id="g34"
           transform="translate(144.625,284)"
           style="fill:#ffffff;fill-opacity:1"><path
             d="m 0,0 h -46.25 c -9.596,0 -17.375,7.779 -17.375,17.375 v 46.25 c 0,9.596 7.779,17.375 17.375,17.375 H 0 C 9.596,81 17.375,73.221 17.375,63.625 V 17.375 C 17.375,7.779 9.596,0 0,0"
             style="fill:#ffffff;fill-opacity:1;fill-rule:nonzero;stroke:none"
             id="path36" /></g></g></g><g
       id="g38"><g
         id="g40"
         clip-path="url(#clipPath44)"
         style="fill:#ffffff;fill-opacity:1"><g
           id="g46"
           transform="translate(211.3482,334.9509)"
           style="fill:#ffffff;fill-opacity:1"><path
             d="m 0,0 h 20.453 c 2.775,0.047 5.406,0.513 7.894,1.399 2.488,0.886 4.689,2.117 6.602,3.696 1.914,1.579 3.433,3.517 4.557,5.813 1.125,2.297 1.687,4.904 1.687,7.823 0.048,2.966 -0.443,5.597 -1.471,7.894 -1.029,2.296 -2.452,4.258 -4.27,5.884 -1.818,1.579 -3.947,2.799 -6.387,3.66 -2.44,0.861 -5.072,1.339 -7.894,1.436 H 0 Z m 18.515,48.656 c 2.488,0.047 4.928,0.442 7.32,1.184 2.392,0.742 4.521,1.83 6.387,3.266 1.866,1.387 3.373,3.11 4.521,5.167 1.149,2.056 1.723,4.449 1.723,7.176 0,2.918 -0.562,5.406 -1.687,7.464 -1.124,2.056 -2.619,3.755 -4.485,5.095 -1.914,1.292 -4.103,2.249 -6.566,2.871 -2.464,0.621 -4.988,0.956 -7.572,1.004 H 0 V 48.656 Z m -31.863,44.566 h 31.074 c 4.306,-0.048 8.516,-0.61 12.63,-1.686 4.115,-1.077 7.775,-2.739 10.98,-4.988 3.206,-2.25 5.765,-5.12 7.679,-8.612 1.914,-3.492 2.847,-7.679 2.799,-12.559 -0.048,-2.727 -0.49,-5.214 -1.328,-7.463 -0.837,-2.25 -1.973,-4.259 -3.408,-6.028 -1.484,-1.819 -3.122,-3.349 -4.916,-4.593 -1.794,-1.245 -3.959,-2.416 -6.495,-3.517 v -0.215 c 2.631,-0.622 5.167,-1.747 7.607,-3.373 2.44,-1.627 4.449,-3.421 6.028,-5.382 1.675,-2.153 2.978,-4.569 3.911,-7.248 0.933,-2.681 1.4,-5.574 1.4,-8.684 C 54.661,13.994 53.728,9.688 51.814,5.956 49.9,2.225 47.341,-0.886 44.135,-3.373 40.93,-5.91 37.234,-7.847 33.048,-9.186 28.861,-10.525 24.543,-11.22 20.094,-11.267 h -33.442 z"
             style="fill:#ffffff;fill-opacity:1;fill-rule:nonzero;stroke:none"
             id="path48" /></g><g
           id="g50"
           transform="translate(336.7208,334.3767)"
           style="fill:#ffffff;fill-opacity:1"><path
             d="m 0,0 c -2.584,-3.828 -5.813,-6.807 -9.688,-8.935 -3.875,-2.128 -8.349,-3.193 -13.42,-3.193 -4.067,0 -7.751,0.635 -11.052,1.902 -3.301,1.266 -6.124,3.24 -8.468,5.92 -2.344,2.679 -4.151,6.088 -5.418,10.227 -1.268,4.137 -1.902,9.102 -1.902,14.891 v 46.144 h 13.276 V 20.668 c 0,-4.21 0.335,-7.704 1.005,-10.477 0.67,-2.775 1.675,-4.977 3.014,-6.603 1.34,-1.675 2.978,-2.846 4.916,-3.516 1.938,-0.671 4.174,-1.005 6.71,-1.005 2.966,0 5.622,0.347 7.966,1.041 2.344,0.692 4.377,1.661 6.1,2.906 1.435,1.005 2.691,2.213 3.767,3.624 1.077,1.411 1.974,2.954 2.692,4.629 V 66.956 H 12.846 V -10.693 H 0.789 Z"
             style="fill:#ffffff;fill-opacity:1;fill-rule:nonzero;stroke:none"
             id="path52" /></g><g
           id="g54"
           transform="translate(374.5407,401.333)"
           style="fill:#ffffff;fill-opacity:1"><path
             d="m 0,0 h 11.913 l 0.933,-11.482 c 1.148,1.625 2.404,3.121 3.767,4.485 1.364,1.363 2.811,2.548 4.342,3.552 2.297,1.531 4.796,2.715 7.5,3.553 2.703,0.836 5.561,1.279 8.575,1.327 4.067,0 7.763,-0.574 11.088,-1.722 3.325,-1.148 6.16,-2.942 8.504,-5.382 2.344,-2.44 4.151,-5.538 5.418,-9.294 1.268,-3.757 1.902,-8.217 1.902,-13.384 V -77.649 H 50.666 v 49.015 c 0,3.445 -0.383,6.362 -1.149,8.755 -0.765,2.392 -1.889,4.33 -3.372,5.813 -1.531,1.482 -3.385,2.559 -5.562,3.23 -2.177,0.669 -4.677,1.004 -7.5,1.004 -2.44,0 -4.712,-0.348 -6.817,-1.04 -2.105,-0.694 -4.043,-1.64 -5.813,-2.835 -1.435,-1.053 -2.763,-2.273 -3.983,-3.66 -1.22,-1.388 -2.285,-2.918 -3.194,-4.593 V -77.649 H 0 Z"
             style="fill:#ffffff;fill-opacity:1;fill-rule:nonzero;stroke:none"
             id="path56" /></g><g
           id="g58"
           transform="translate(502.8198,334.1615)"
           style="fill:#ffffff;fill-opacity:1"><path
             d="m 0,0 c 2.273,0.764 4.294,1.841 6.064,3.229 1.77,1.339 3.194,2.931 4.27,4.773 1.077,1.841 1.639,3.839 1.687,5.992 H 24.579 C 24.531,10.549 23.634,7.259 21.888,4.126 20.142,0.993 17.81,-1.747 14.891,-4.091 11.973,-6.484 8.624,-8.385 4.844,-9.796 c -3.779,-1.41 -7.727,-2.117 -11.841,-2.117 -5.885,0 -11.028,1.053 -15.429,3.158 -4.402,2.105 -8.062,4.951 -10.98,8.54 -2.967,3.54 -5.191,7.643 -6.674,12.307 -1.484,4.665 -2.225,9.581 -2.225,14.748 v 3.014 c 0,5.119 0.741,10.022 2.225,14.712 1.483,4.688 3.707,8.827 6.674,12.415 2.918,3.54 6.578,6.362 10.98,8.468 4.401,2.105 9.544,3.158 15.429,3.158 4.593,0 8.815,-0.73 12.666,-2.189 3.852,-1.46 7.189,-3.434 10.012,-5.921 2.774,-2.536 4.951,-5.525 6.53,-8.97 1.579,-3.445 2.368,-7.13 2.368,-11.052 H 12.021 c -0.048,2.343 -0.563,4.557 -1.543,6.638 -0.981,2.082 -2.309,3.912 -3.983,5.49 -1.675,1.579 -3.672,2.823 -5.993,3.732 -2.32,0.908 -4.82,1.364 -7.499,1.364 -4.115,0 -7.571,-0.826 -10.37,-2.476 -2.799,-1.651 -5.059,-3.793 -6.782,-6.423 -1.722,-2.68 -2.954,-5.67 -3.696,-8.971 -0.741,-3.301 -1.112,-6.627 -1.112,-9.975 V 26.84 c 0,-3.398 0.371,-6.758 1.112,-10.083 0.742,-3.326 1.974,-6.304 3.696,-8.935 1.675,-2.68 3.911,-4.844 6.71,-6.494 2.799,-1.651 6.28,-2.476 10.442,-2.476 2.392,0 4.724,0.382 6.997,1.148"
             style="fill:#ffffff;fill-opacity:1;fill-rule:nonzero;stroke:none"
             id="path60" /></g><g
           id="g62"
           transform="translate(567.7308,394.1207)"
           style="fill:#ffffff;fill-opacity:1"><path
             d="m 0,0 c 1.292,1.316 2.655,2.476 4.091,3.481 2.296,1.674 4.82,2.942 7.571,3.803 2.751,0.861 5.681,1.316 8.791,1.364 4.067,0 7.762,-0.586 11.087,-1.759 3.326,-1.173 6.16,-3.003 8.505,-5.49 2.344,-2.487 4.15,-5.633 5.418,-9.437 1.268,-3.803 1.902,-8.313 1.902,-13.527 V -70.437 H 34.088 v 49.015 c 0,3.061 -0.359,5.752 -1.076,8.074 -0.718,2.32 -1.771,4.245 -3.158,5.777 -1.483,1.674 -3.349,2.93 -5.598,3.768 -2.248,0.836 -4.832,1.23 -7.75,1.184 -2.392,0 -4.665,-0.335 -6.818,-1.005 C 7.535,-4.295 5.55,-5.251 3.732,-6.495 2.296,-7.453 0.969,-8.565 -0.251,-9.832 -1.471,-11.1 -2.56,-12.499 -3.516,-14.03 V -70.437 H -16.793 V 39.793 H -3.516 V -4.342 C -2.464,-2.763 -1.292,-1.317 0,0"
             style="fill:#ffffff;fill-opacity:1;fill-rule:nonzero;stroke:none"
             id="path64" /></g><g
           id="g66"
           transform="translate(666.4429,424.9436)"
           style="fill:#ffffff;fill-opacity:1"><path
             d="m 0,0 c 0.359,1.005 0.921,1.866 1.686,2.584 0.622,0.62 1.424,1.112 2.405,1.471 0.98,0.359 2.093,0.538 3.337,0.538 1.244,0 2.344,-0.179 3.301,-0.538 0.957,-0.359 1.746,-0.851 2.368,-1.471 0.765,-0.671 1.34,-1.508 1.722,-2.512 0.383,-1.005 0.574,-2.106 0.574,-3.301 0,-2.153 -0.669,-3.947 -2.009,-5.383 -1.34,-1.435 -3.325,-2.153 -5.956,-2.153 -2.68,0 -4.677,0.718 -5.993,2.153 -1.315,1.436 -1.973,3.23 -1.973,5.383 0,1.148 0.179,2.224 0.538,3.229 m 14.461,-23.611 v -66.166 h 25.332 v -11.483 h -65.018 v 11.483 H 1.184 v 54.612 h -26.409 v 11.554 z"
             style="fill:#ffffff;fill-opacity:1;fill-rule:nonzero;stroke:none"
             id="path68" /></g><g
           id="g70"
           transform="translate(747.142,391.0707)"
           style="fill:#ffffff;fill-opacity:1"><path
             d="M 0,0 H -21.386 V 10.262 H 0 v 5.454 c 0,4.976 0.73,9.341 2.189,13.097 1.459,3.756 3.528,6.901 6.207,9.437 2.632,2.536 5.813,4.45 9.545,5.742 3.732,1.291 7.894,1.937 12.487,1.937 1.914,0 3.804,-0.107 5.67,-0.323 1.865,-0.215 3.707,-0.491 5.525,-0.825 1.197,-0.24 2.393,-0.491 3.589,-0.753 1.196,-0.264 2.416,-0.564 3.66,-0.898 L 47.293,32.151 c -1.962,0.669 -4.246,1.255 -6.854,1.758 -2.607,0.502 -5.394,0.753 -8.36,0.753 -3.014,0 -5.682,-0.371 -8.002,-1.112 -2.32,-0.743 -4.246,-1.855 -5.777,-3.337 -1.627,-1.532 -2.859,-3.517 -3.696,-5.957 -0.837,-2.44 -1.256,-5.286 -1.256,-8.54 V 10.262 H 43.274 V 0 H 13.348 V -67.387 H 0 Z"
             style="fill:#ffffff;fill-opacity:1;fill-rule:nonzero;stroke:none"
             id="path72" /></g><g
           id="g74"
           transform="translate(817.3995,292.7533)"
           style="fill:#ffffff;fill-opacity:1"><path
             d="m 0,0 c -1.674,0.287 -2.942,0.527 -3.804,0.718 l 2.153,10.836 c 1.197,-0.096 2.381,-0.179 3.553,-0.251 1.172,-0.072 2.093,-0.108 2.763,-0.108 1.818,0 3.48,0.503 4.987,1.507 1.507,1.005 2.859,2.201 4.055,3.589 1.148,1.388 2.141,2.823 2.978,4.305 0.838,1.484 1.495,2.704 1.974,3.66 l 5.31,10.335 -33.442,73.989 H 5.382 l 21.314,-50.092 3.445,-9.401 3.66,9.114 20.022,50.379 H 68.679 L 29.28,18.946 C 28.371,16.936 27.211,14.808 25.799,12.559 24.388,10.31 22.678,8.229 20.668,6.315 18.659,4.403 16.314,2.799 13.635,1.507 10.956,0.215 7.87,-0.431 4.378,-0.431 3.134,-0.431 1.674,-0.287 0,0"
             style="fill:#ffffff;fill-opacity:1;fill-rule:nonzero;stroke:none"
             id="path76" /></g></g></g></g></svg>
